<svg width="89" height="105" viewBox="0 0 89 105" fill="none" xmlns="http://www.w3.org/2000/svg">
<g clip-path="url(#clip0_123_4581)">
<path d="M0 9C0 4.02944 4.02944 0 9 0H79.5C84.4706 0 88.5 4.02944 88.5 9V96C88.5 100.971 84.4706 105 79.5 105H9C4.02944 105 0 100.971 0 96V9Z" fill="url(#paint0_linear_123_4581)"/>
<rect width="88.5" height="26.25" fill="#5047E1"/>
<path d="M27.75 9C27.75 12.3137 25.0637 15 21.75 15C18.4363 15 15.75 12.3137 15.75 9C15.75 5.68629 18.4363 3 21.75 3C25.0637 3 27.75 5.68629 27.75 9ZM18.5879 9C18.5879 10.7464 20.0036 12.1621 21.75 12.1621C23.4964 12.1621 24.9121 10.7464 24.9121 9C24.9121 7.25361 23.4964 5.83788 21.75 5.83788C20.0036 5.83788 18.5879 7.25361 18.5879 9Z" fill="white"/>
<path d="M50.25 9C50.25 12.3137 47.5637 15 44.25 15C40.9363 15 38.25 12.3137 38.25 9C38.25 5.68629 40.9363 3 44.25 3C47.5637 3 50.25 5.68629 50.25 9ZM41.0879 9C41.0879 10.7464 42.5036 12.1621 44.25 12.1621C45.9964 12.1621 47.4121 10.7464 47.4121 9C47.4121 7.25361 45.9964 5.83788 44.25 5.83788C42.5036 5.83788 41.0879 7.25361 41.0879 9Z" fill="white"/>
<path d="M72.75 9C72.75 12.3137 70.0637 15 66.75 15C63.4363 15 60.75 12.3137 60.75 9C60.75 5.68629 63.4363 3 66.75 3C70.0637 3 72.75 5.68629 72.75 9ZM63.5879 9C63.5879 10.7464 65.0036 12.1621 66.75 12.1621C68.4964 12.1621 69.9121 10.7464 69.9121 9C69.9121 7.25361 68.4964 5.83788 66.75 5.83788C65.0036 5.83788 63.5879 7.25361 63.5879 9Z" fill="white"/>
<circle cx="21.75" cy="45" r="3.75" fill="white"/>
<circle cx="21.75" cy="63.75" r="3.75" fill="white"/>
<circle cx="36.75" cy="45" r="3.75" fill="white"/>
<circle cx="36.75" cy="63.75" r="3.75" fill="white"/>
<circle cx="51.75" cy="45" r="3.75" fill="white"/>
<circle cx="51.75" cy="63.75" r="3.75" fill="white"/>
<circle cx="66.75" cy="45" r="3.75" fill="white"/>
<circle cx="66.75" cy="63.75" r="3.75" fill="white"/>
<circle cx="44.25" cy="82.5" r="15" fill="#47B881"/>
<path fill-rule="evenodd" clip-rule="evenodd" d="M45.5189 92.4254L45.5093 92.4272L45.4472 92.4578L45.4297 92.4613L45.4174 92.4578L45.3553 92.4272C45.3459 92.4243 45.3389 92.4257 45.3343 92.4316L45.3308 92.4403L45.3159 92.8148L45.3203 92.8323L45.329 92.8437L45.42 92.9084L45.4332 92.9119L45.4437 92.9084L45.5347 92.8437L45.5452 92.8297L45.5487 92.8148L45.5338 92.4412C45.5314 92.4319 45.5265 92.4266 45.5189 92.4254ZM45.7508 92.3266L45.7394 92.3283L45.5775 92.4097L45.5688 92.4184L45.5662 92.4281L45.5819 92.8043L45.5863 92.8148L45.5933 92.8209L45.7692 92.9023C45.7802 92.9052 45.7887 92.9029 45.7945 92.8953L45.798 92.8831L45.7683 92.3458C45.7654 92.3353 45.7595 92.3289 45.7508 92.3266ZM45.1252 92.3283C45.1213 92.326 45.1167 92.3252 45.1123 92.3262C45.1079 92.3272 45.104 92.3298 45.1015 92.3336L45.0963 92.3458L45.0665 92.8831C45.0671 92.8936 45.0721 92.9006 45.0814 92.9041L45.0945 92.9023L45.2704 92.8209L45.2792 92.8139L45.2827 92.8043L45.2975 92.4281L45.2949 92.4176L45.2862 92.4088L45.1252 92.3283Z" fill="white"/>
<path fill-rule="evenodd" clip-rule="evenodd" d="M53.3528 76.4721C53.5988 76.7183 53.7371 77.052 53.7371 77.4001C53.7371 77.7481 53.5988 78.0819 53.3528 78.328L43.5151 88.1656C43.3851 88.2957 43.2308 88.3988 43.0609 88.4692C42.891 88.5396 42.709 88.5758 42.5251 88.5758C42.3412 88.5758 42.1591 88.5396 41.9893 88.4692C41.8194 88.3988 41.665 88.2957 41.535 88.1656L36.6473 83.2787C36.5219 83.1577 36.4219 83.0128 36.3531 82.8527C36.2844 82.6926 36.2481 82.5204 36.2466 82.3461C36.2451 82.1718 36.2783 81.999 36.3443 81.8377C36.4103 81.6764 36.5078 81.5298 36.631 81.4066C36.7542 81.2834 36.9008 81.1859 37.0621 81.1199C37.2234 81.0539 37.3962 81.0207 37.5705 81.0222C37.7448 81.0237 37.917 81.06 38.0771 81.1287C38.2372 81.1975 38.3821 81.2975 38.5031 81.4229L42.5246 85.4444L51.496 76.4721C51.6179 76.3502 51.7626 76.2534 51.9219 76.1874C52.0812 76.1214 52.252 76.0874 52.4244 76.0874C52.5968 76.0874 52.7676 76.1214 52.9269 76.1874C53.0862 76.2534 53.2309 76.3502 53.3528 76.4721Z" fill="white"/>
</g>
<defs>
<linearGradient id="paint0_linear_123_4581" x1="1.875" y1="1.125" x2="88.5" y2="105" gradientUnits="userSpaceOnUse">
<stop stop-color="#6965F0"/>
<stop offset="1" stop-color="#885AFB"/>
</linearGradient>
<clipPath id="clip0_123_4581">
<path d="M0 9C0 4.02944 4.02944 0 9 0H79.5C84.4706 0 88.5 4.02944 88.5 9V96C88.5 100.971 84.4706 105 79.5 105H9C4.02944 105 0 100.971 0 96V9Z" fill="white"/>
</clipPath>
</defs>
</svg>
